<svg width="31" height="29" viewBox="0 0 31 29" fill="none" xmlns="http://www.w3.org/2000/svg">
<path d="M29.8609 26.8125C27.7618 23.1964 24.4017 20.4823 20.425 19.1906C22.3312 18.0571 23.8124 16.3292 24.6413 14.2722C25.4701 12.2152 25.6007 9.94297 25.0129 7.80458C24.4252 5.66618 23.1516 3.77991 21.3878 2.43553C19.6241 1.09115 17.4677 0.363037 15.25 0.363037C13.0323 0.363037 10.876 1.09115 9.1122 2.43553C7.34844 3.77991 6.07485 5.66618 5.48709 7.80458C4.89933 9.94297 5.0299 12.2152 5.85874 14.2722C6.68759 16.3292 8.16887 18.0571 10.075 19.1906C6.09827 20.4823 2.73823 23.1964 0.639075 26.8125C0.536013 26.982 0.481506 27.1766 0.481506 27.375C0.481506 27.5734 0.536013 27.768 0.639075 27.9375C0.73523 28.1099 0.876125 28.2531 1.0469 28.3521C1.21768 28.4511 1.412 28.5022 1.60939 28.5H28.8906C29.088 28.5022 29.2823 28.4511 29.4531 28.3521C29.6239 28.2531 29.7648 28.1099 29.8609 27.9375C29.964 27.768 30.0185 27.5734 30.0185 27.375C30.0185 27.1766 29.964 26.982 29.8609 26.8125Z" fill="url(#paint0_linear_1_689)"/>
<defs>
<linearGradient id="paint0_linear_1_689" x1="15.25" y1="0.363037" x2="15.25" y2="28.5001" gradientUnits="userSpaceOnUse">
<stop stop-color="#549994"/>
<stop offset="1" stop-color="#408782"/>
</linearGradient>
</defs>
</svg>
