<svg width="29" height="26" viewBox="0 0 29 26" fill="none" xmlns="http://www.w3.org/2000/svg">
<path d="M1.625 4V22C1.625 22.5967 1.86205 23.169 2.28401 23.591C2.70597 24.0129 3.27826 24.25 3.875 24.25H26.375C26.6734 24.25 26.9595 24.1315 27.1705 23.9205C27.3815 23.7095 27.5 23.4234 27.5 23.125V7.375C27.5 7.07663 27.3815 6.79048 27.1705 6.57951C26.9595 6.36853 26.6734 6.25 26.375 6.25H3.875C3.27826 6.25 2.70597 6.01295 2.28401 5.59099C1.86205 5.16903 1.625 4.59674 1.625 4ZM1.625 4C1.625 3.40326 1.86205 2.83097 2.28401 2.40901C2.70597 1.98705 3.27826 1.75 3.875 1.75H23" stroke="#AAAAAA" stroke-width="1.6875" stroke-linecap="round" stroke-linejoin="round"/>
</svg>
